<svg xmlns="http://www.w3.org/2000/svg" width="64" height="64" viewBox="0 0 64 64" role="img" aria-label="Dr. Ahmad Fauzi">
  <defs>
    <linearGradient id="bg" x1="0" y1="0" x2="1" y2="1">
      <stop offset="0" stop-color="#D8F2E3"/>
      <stop offset="1" stop-color="#6BAF8D"/>
    </linearGradient>
    <clipPath id="clip">
      <circle cx="32" cy="32" r="32"/>
    </clipPath>
  </defs>
  <g clip-path="url(#clip)">
    <rect width="64" height="64" fill="url(#bg)"/>
    <circle cx="32" cy="25" r="12" fill="#F3C9A6"/>
    <path d="M19 23c2-8 8-13 15-12 8 1 12 7 11 15-5-4-16-5-26-3Z" fill="#27373F"/>
    <path d="M14 62c2-15 10-24 18-24s16 9 18 24H14Z" fill="#FFFFFF"/>
    <path d="M25 40h14l-7 10-7-10Z" fill="#E8F3EF"/>
    <path d="M22 45c-4 4-6 10-7 17h34c-1-7-3-13-7-17l-7 8-3-5-3 5-7-8Z" fill="#F7FBFA"/>
    <path d="M19 62h26" stroke="#6BAF8D" stroke-width="3" stroke-linecap="round"/>
    <circle cx="27" cy="27" r="1.5" fill="#26343B"/>
    <circle cx="37" cy="27" r="1.5" fill="#26343B"/>
    <path d="M27 33c3 3 7 3 10 0" stroke="#B7775E" stroke-width="2" stroke-linecap="round" fill="none"/>
  </g>
</svg>