<svg width="841" height="350" viewBox="0 0 841 350" fill="none" xmlns="http://www.w3.org/2000/svg">
<rect x="55.8096" y="202.04" width="17.3053" height="16.4401" rx="3.02843" fill="#036EE8"/>
<rect x="137.577" y="202.04" width="16.8727" height="16.4401" rx="3.02843" fill="#036EE8"/>
<rect x="102.102" y="215.884" width="16.8727" height="16.4401" rx="3.02843" fill="#01B1A2"/>
<rect x="127.194" y="241.409" width="16.8727" height="16.4401" rx="3.02843" fill="#7C59E1"/>
<rect x="96.9102" y="252.225" width="13.8443" height="13.4116" rx="3.02843" fill="#01B1A2"/>
<rect x="78.3066" y="231.891" width="13.8443" height="13.4116" rx="3.02843" fill="#008EF3"/>
<path d="M189.073 32.0846C206.368 31.4179 224.585 32.5856 241.707 31.9038C269.044 30.8153 265.821 46.417 265.805 67.1585L265.768 108.42L304.44 108.388C309.643 108.381 315.012 108.396 320.196 108.382C342.982 108.319 341.103 126.193 341.1 142.938L341.097 169.292C341.085 176.811 341.514 185.175 335.771 190.841C333.418 193.197 330.47 194.869 327.24 195.678C323.384 196.652 314.972 196.332 310.718 196.322L286.435 196.234C287.129 207.401 286.078 216.341 282.678 226.989C281.558 230.6 279.804 234.392 278.165 237.791C278.826 215.117 275.184 204.136 263.791 184.338C250.082 160.515 268.755 145.158 292.913 152.811C290.894 144.007 286.644 141.084 278.457 138.352C269.674 124.573 252.921 126.258 238.615 125.735C213.845 124.829 193.999 116.388 174.377 101.724L174.341 65.9042C174.331 51.434 171.373 36.5098 189.073 32.0846Z" fill="#01B1A2"/>
<path d="M134.906 67.619C135.147 68.4462 135.306 74.4749 135.364 75.7822C135.648 82.2184 137.712 89.7875 140.553 95.5718C166.174 147.737 239.369 149.376 262.343 204.001C270.51 223.419 270.668 242.062 262.849 261.59C251.736 289.347 225.855 306.605 199.402 317.949C175.641 308.609 156.44 296.367 140.337 276.528C149.096 280.698 156.85 282.466 165.975 285.293C167.546 285.78 172.747 289.6 174.726 290.688C182.592 295.047 190.791 298.774 199.246 301.835C206.212 298.603 213.847 292.573 219.594 287.558C231.898 277.156 241.763 258.194 240.154 241.836C239.339 234.269 236.569 227.045 232.118 220.872C211.813 192.182 172.475 196.362 146.977 175.113C133.517 163.897 127.509 149.106 125.851 132.044C128.755 136.373 132.115 141.128 136.009 144.629C149.673 156.915 169.767 162.66 186.415 170.472C201.288 177.451 207.921 181.277 221.027 190.723C200.941 168.538 178.225 159.89 153.418 144.658C125.333 127.414 116.014 96.1027 134.906 67.619Z" fill="#036EE8"/>
<path d="M172.999 200.731C187.81 206.077 207.236 208.92 218.92 219.496C237.496 236.31 233.145 259.311 217.713 276.68C212.835 281.981 205.825 286.684 199.451 289.922C191.316 284.806 176.083 275.828 173.804 265.753C172.457 259.796 172.946 249.292 172.94 242.718L172.999 200.731Z" fill="#036EE8"/>
<path d="M647.741 110.624C654.687 110.603 661.567 110.334 668.651 110.782C686.677 111.923 692.199 127.908 686.349 143.227C684.248 148.725 679.449 151.343 674.227 153.344L690.529 173.047L685.528 173.096L672.922 173.127C668.992 168.069 665.102 162.848 660.901 158.048C658.038 154.799 654.379 154.294 650.313 154.437C641.965 154.732 633.587 154.664 625.243 154.648L625.207 173.086L610.996 173.133L611.008 110.634L647.741 110.624ZM652.468 123.86L625.256 123.903L625.219 142.517L650.896 142.565C654.954 142.575 663.269 142.792 666.99 142.12C668.664 141.814 670.243 141.131 671.613 140.126C675.691 134.583 674.94 124.679 666.571 124.122C661.776 123.803 657.263 123.855 652.468 123.86Z" fill="#002157"/>
<path d="M566.542 197.206C579.895 197.796 595.329 195.903 608.387 198.213C621.318 200.502 629.625 212.957 629.342 225.583C629.112 235.805 627.245 241.811 620.132 249.056C609.786 257.15 597.786 255.605 585.212 255.569L562.268 255.555L562.251 220.814C562.235 214.616 562.177 208.324 562.288 202.124C562.337 199.334 562.715 199.217 564.775 197.376C565.197 197.317 566.124 197.193 566.542 197.206ZM606.364 210.16C598.492 208.097 584.031 209.087 575.26 209.143L575.273 243.722L589.819 243.771C597.487 243.791 606.151 244.724 612.173 239.211C618.921 230.703 618.585 213.362 606.364 210.16Z" fill="#02A7F6"/>
<path d="M505.027 110.853C520.013 109.822 520.747 115.502 528.993 126.84L545.562 149.451C551.076 141.847 556.639 134.282 562.255 126.756C567.826 119.237 571.818 110.488 582.119 110.603C592.732 110.722 591.903 117.305 591.92 125.679C591.928 128.906 591.907 132.215 591.907 135.419L591.883 173.053L577.582 173.124L577.59 137.847L577.537 128.822C571.436 136.582 565.988 145.056 559.896 153.012C555.183 159.168 548.122 173.484 538.855 163.679C535.688 160.327 532.468 155.181 529.682 151.337C524.086 143.628 518.437 135.957 512.735 128.325L512.764 173.063L498.426 173.121C498.459 164.55 497.355 119.944 499.308 115.522C500.448 112.941 502.553 111.845 505.027 110.853Z" fill="#002157"/>
<path d="M386.923 110.858C393.64 110.418 402.149 110.627 409.017 110.63L445.05 110.629L445.013 123.927L407.313 123.945C402.033 123.953 396.737 123.813 391.48 123.895C387.107 124.183 385.907 126.408 385.998 130.378C386.165 137.669 393.755 136.074 399.091 136.284C410.614 136.736 422.836 136.078 434.285 137.621C436.866 137.969 440.496 139.855 442.383 141.57C449.054 147.477 449.07 162.035 443.183 168.402C439.811 172.049 435.184 173.099 430.343 173.269L371.522 173.284L371.562 160.806L412.666 160.783C417.941 160.78 423.439 160.954 428.661 160.782C434.523 160.465 435.118 150.112 429.219 149.536C415.324 148.187 402.286 149.48 388.146 148.491C371.809 147.348 367.868 131.715 374.09 118.717C376.271 114.161 382.191 111.976 386.923 110.858Z" fill="#002157"/>
<path d="M718.422 110.862C724.399 110.346 733.642 110.625 739.976 110.631L777.029 110.629L777.033 123.917L738.438 123.938C735.357 123.946 719.288 122.834 718.201 125.893C714.053 137.573 723.776 136.056 731.062 136.244C742.544 136.542 753.777 136.264 765.132 137.454C772.922 138.376 778.621 145.137 778.711 152.535C779.511 164.465 775.511 172.403 762.732 173.252L703.095 173.257L703.091 160.795L743.549 160.811C748.993 160.809 754.552 160.917 759.955 160.746C766.416 160.705 766.268 150.349 760.779 149.598C751.734 148.36 741.039 149.076 731.861 148.807C721.761 149.001 706.201 149.221 703.715 136.15C701.262 123.25 705.397 113.861 718.422 110.862Z" fill="#002157"/>
<path d="M103.293 108.434C106.873 108.202 112.553 108.363 116.291 108.352C112.842 137.783 120.831 171.865 146.697 189.095C147.723 189.778 148.742 190.469 149.771 191.148L134.353 191.14L115.813 191.178C105.487 191.229 90.0473 191.23 87.663 176.641C85.4457 163.072 87.9719 146.367 87.0394 132.445C86.2317 120.39 90.7173 111.211 103.293 108.434Z" fill="#036EE8"/>
<path d="M371.515 197.116C390.72 197.351 409.975 196.941 429.161 197.228C435.471 197.322 435.737 205.97 433.169 208.746C429.559 212.65 423.512 217.098 419.295 220.535L390.778 243.707L434.962 243.708L434.95 254.499L434.79 255.112C433.838 255.868 416.981 255.519 414.323 255.52L371.505 255.541C371.467 253.079 371.254 248.143 371.821 245.937L371.887 245.686C372.783 242.19 385.007 233.106 388.217 230.478C396.901 223.312 405.635 216.206 414.417 209.161C400.753 208.771 385.29 209.1 371.488 209.111L371.515 197.116Z" fill="#017FF5"/>
<path d="M767.585 197.176L779.569 197.201C779.556 204.736 780.414 248.664 778.785 252.05C777.833 254.022 776.196 254.824 774.219 255.523C772.902 255.568 771.347 255.608 770.043 255.495C768.353 255.356 766.744 254.716 765.419 253.658C763.077 251.757 756 243.228 753.781 240.64L730.774 213.753L730.799 255.543L718.689 255.562L718.685 218.61C718.676 213.542 718.361 206.716 719.025 201.755C719.308 199.676 721.499 198.39 723.197 197.417C733.978 196.158 735.615 201.004 742.007 208.502L758.445 227.709C760.792 230.441 765.144 235.779 767.598 238.068L767.585 197.176Z" fill="#02B8E9"/>
<path d="M477.922 197.413C481.282 196.951 485.749 196.797 487.907 199.8C492.014 205.507 495.628 211.98 499.25 218.019C506.77 230.481 514.22 242.982 521.608 255.521L506.684 255.534L482.627 214.753L481.105 212.187L456.064 255.525L441.423 255.521C442.69 253.141 444.176 250.69 445.566 248.36C455.191 232.226 464.261 215.666 474.39 199.855C475.071 198.794 476.794 197.956 477.922 197.413Z" fill="#0195F8"/>
<path d="M669.131 197.12C672.056 197.151 675.477 197.176 677.377 199.863C681.377 205.514 684.786 211.794 688.289 217.785L710.266 255.529L695.579 255.548C687.506 241.377 679.346 227.255 671.104 213.182L670.649 212.674C669.336 213.334 648.217 251.154 645.718 255.539L630.979 255.521L652.2 218.88C655.741 212.77 659.31 206.347 663.121 200.419C664.618 198.087 666.493 197.544 669.131 197.12Z" fill="#02A7F6"/>
<path d="M464.802 110.658L479.235 110.636L479.194 173.088L464.79 173.12L464.802 110.658Z" fill="#002157"/>
<path d="M532.238 197.121L545.567 197.244L545.608 238.353C545.612 240.873 545.797 253.419 545.411 255.264L544.443 255.534L532.218 255.553C532.813 237.126 532.288 215.784 532.238 197.121Z" fill="#02A7F6"/>
<path d="M421.663 277.426V287.608H419.51V277.426H421.663ZM425.512 283.193V287.608H423.394V279.972H425.412V281.319H425.502C425.671 280.875 425.954 280.524 426.352 280.265C426.75 280.003 427.232 279.872 427.799 279.872C428.329 279.872 428.791 279.988 429.186 280.22C429.58 280.452 429.887 280.784 430.106 281.215C430.324 281.642 430.434 282.153 430.434 282.746V287.608H428.316V283.124C428.319 282.656 428.2 282.292 427.958 282.03C427.716 281.765 427.383 281.632 426.959 281.632C426.674 281.632 426.422 281.694 426.203 281.816C425.988 281.939 425.818 282.118 425.696 282.353C425.577 282.585 425.515 282.865 425.512 283.193ZM436.165 279.972V281.563H431.566V279.972H436.165ZM432.61 278.142H434.728V285.262C434.728 285.457 434.758 285.61 434.817 285.719C434.877 285.825 434.96 285.9 435.066 285.943C435.175 285.986 435.301 286.007 435.444 286.007C435.543 286.007 435.643 285.999 435.742 285.982C435.842 285.963 435.918 285.948 435.971 285.938L436.304 287.514C436.198 287.547 436.049 287.585 435.857 287.628C435.664 287.674 435.431 287.703 435.156 287.713C434.645 287.732 434.198 287.664 433.813 287.509C433.432 287.353 433.135 287.111 432.923 286.783C432.711 286.455 432.607 286.04 432.61 285.54V278.142ZM440.942 287.757C440.157 287.757 439.481 287.598 438.914 287.28C438.351 286.959 437.916 286.504 437.612 285.918C437.307 285.328 437.154 284.63 437.154 283.825C437.154 283.039 437.307 282.35 437.612 281.757C437.916 281.163 438.346 280.701 438.899 280.37C439.456 280.038 440.109 279.872 440.858 279.872C441.362 279.872 441.831 279.954 442.265 280.116C442.702 280.275 443.084 280.515 443.408 280.837C443.737 281.158 443.992 281.563 444.174 282.05C444.356 282.534 444.447 283.101 444.447 283.75V284.332H437.999V283.019H442.454C442.454 282.714 442.388 282.444 442.255 282.209C442.122 281.974 441.938 281.79 441.703 281.657C441.471 281.521 441.201 281.453 440.893 281.453C440.571 281.453 440.286 281.528 440.038 281.677C439.792 281.823 439.6 282.02 439.461 282.269C439.322 282.514 439.25 282.787 439.247 283.089V284.337C439.247 284.715 439.317 285.041 439.456 285.316C439.598 285.591 439.799 285.803 440.058 285.953C440.316 286.102 440.623 286.176 440.977 286.176C441.213 286.176 441.428 286.143 441.624 286.077C441.819 286.011 441.987 285.911 442.126 285.779C442.265 285.646 442.371 285.484 442.444 285.291L444.403 285.421C444.303 285.891 444.099 286.302 443.791 286.654C443.486 287.002 443.092 287.273 442.608 287.469C442.127 287.661 441.572 287.757 440.942 287.757ZM449.27 290.631C448.584 290.631 447.996 290.536 447.505 290.348C447.018 290.162 446.63 289.908 446.342 289.587C446.053 289.265 445.866 288.904 445.78 288.503L447.739 288.24C447.798 288.392 447.893 288.535 448.022 288.667C448.151 288.8 448.322 288.906 448.534 288.985C448.75 289.068 449.011 289.11 449.32 289.11C449.78 289.11 450.16 288.997 450.458 288.772C450.76 288.549 450.911 288.177 450.911 287.653V286.256H450.821C450.728 286.468 450.589 286.669 450.403 286.857C450.218 287.046 449.979 287.2 449.688 287.32C449.396 287.439 449.048 287.499 448.643 287.499C448.07 287.499 447.548 287.366 447.077 287.101C446.61 286.833 446.237 286.423 445.959 285.873C445.684 285.32 445.546 284.62 445.546 283.775C445.546 282.91 445.687 282.187 445.969 281.607C446.25 281.027 446.625 280.593 447.092 280.305C447.563 280.017 448.078 279.872 448.638 279.872C449.066 279.872 449.424 279.945 449.712 280.091C450.001 280.234 450.233 280.413 450.408 280.628C450.587 280.84 450.725 281.049 450.821 281.254H450.901V279.972H453.004V287.683C453.004 288.332 452.844 288.876 452.526 289.313C452.208 289.751 451.767 290.079 451.204 290.298C450.644 290.52 449.999 290.631 449.27 290.631ZM449.315 285.908C449.656 285.908 449.944 285.823 450.18 285.654C450.418 285.482 450.601 285.237 450.727 284.919C450.856 284.597 450.92 284.213 450.92 283.765C450.92 283.318 450.857 282.93 450.732 282.602C450.606 282.27 450.423 282.013 450.185 281.831C449.946 281.649 449.656 281.558 449.315 281.558C448.967 281.558 448.673 281.652 448.435 281.841C448.196 282.027 448.015 282.285 447.893 282.617C447.77 282.948 447.709 283.331 447.709 283.765C447.709 284.206 447.77 284.587 447.893 284.909C448.019 285.227 448.199 285.474 448.435 285.649C448.673 285.822 448.967 285.908 449.315 285.908ZM454.689 287.608V279.972H456.742V281.304H456.822C456.961 280.83 457.195 280.472 457.523 280.23C457.851 279.985 458.229 279.862 458.656 279.862C458.762 279.862 458.877 279.869 458.999 279.882C459.122 279.896 459.23 279.914 459.322 279.937V281.816C459.223 281.786 459.085 281.76 458.91 281.737C458.734 281.714 458.573 281.702 458.428 281.702C458.116 281.702 457.838 281.77 457.592 281.906C457.35 282.038 457.158 282.224 457.016 282.463C456.876 282.701 456.807 282.976 456.807 283.288V287.608H454.689ZM462.376 287.752C461.889 287.752 461.455 287.668 461.074 287.499C460.693 287.326 460.391 287.073 460.169 286.738C459.95 286.4 459.841 285.979 459.841 285.475C459.841 285.051 459.919 284.695 460.074 284.406C460.23 284.118 460.442 283.886 460.711 283.71C460.979 283.535 461.284 283.402 461.626 283.313C461.97 283.223 462.331 283.16 462.709 283.124C463.153 283.077 463.511 283.034 463.783 282.995C464.055 282.951 464.252 282.888 464.375 282.806C464.497 282.723 464.559 282.6 464.559 282.438V282.408C464.559 282.093 464.459 281.849 464.26 281.677C464.065 281.505 463.787 281.419 463.425 281.419C463.044 281.419 462.741 281.503 462.515 281.672C462.29 281.838 462.141 282.047 462.068 282.298L460.109 282.139C460.209 281.675 460.404 281.274 460.696 280.936C460.988 280.595 461.364 280.333 461.824 280.151C462.288 279.965 462.825 279.872 463.435 279.872C463.859 279.872 464.265 279.922 464.653 280.022C465.044 280.121 465.391 280.275 465.692 280.484C465.997 280.693 466.238 280.961 466.413 281.289C466.589 281.614 466.677 282.004 466.677 282.458V287.608H464.668V286.549H464.608C464.486 286.788 464.322 286.998 464.116 287.181C463.911 287.36 463.664 287.5 463.376 287.603C463.087 287.703 462.754 287.752 462.376 287.752ZM462.983 286.291C463.294 286.291 463.569 286.229 463.808 286.107C464.047 285.981 464.234 285.812 464.37 285.6C464.506 285.388 464.574 285.147 464.574 284.879V284.068C464.507 284.111 464.416 284.151 464.3 284.188C464.188 284.221 464.06 284.252 463.917 284.282C463.775 284.309 463.632 284.334 463.49 284.357C463.347 284.377 463.218 284.395 463.102 284.411C462.854 284.448 462.636 284.506 462.451 284.585C462.265 284.665 462.121 284.773 462.018 284.909C461.916 285.041 461.864 285.207 461.864 285.406C461.864 285.694 461.969 285.914 462.177 286.067C462.39 286.216 462.658 286.291 462.983 286.291ZM472.382 279.972V281.563H467.783V279.972H472.382ZM468.827 278.142H470.945V285.262C470.945 285.457 470.975 285.61 471.034 285.719C471.094 285.825 471.177 285.9 471.283 285.943C471.392 285.986 471.518 286.007 471.661 286.007C471.76 286.007 471.86 285.999 471.959 285.982C472.058 285.963 472.135 285.948 472.188 285.938L472.521 287.514C472.415 287.547 472.266 287.585 472.073 287.628C471.881 287.674 471.647 287.703 471.372 287.713C470.862 287.732 470.414 287.664 470.03 287.509C469.649 287.353 469.352 287.111 469.14 286.783C468.928 286.455 468.824 286.04 468.827 285.54V278.142ZM477.159 287.757C476.374 287.757 475.698 287.598 475.131 287.28C474.567 286.959 474.133 286.504 473.828 285.918C473.523 285.328 473.371 284.63 473.371 283.825C473.371 283.039 473.523 282.35 473.828 281.757C474.133 281.163 474.562 280.701 475.116 280.37C475.673 280.038 476.326 279.872 477.075 279.872C477.579 279.872 478.048 279.954 478.482 280.116C478.919 280.275 479.3 280.515 479.625 280.837C479.953 281.158 480.209 281.563 480.391 282.05C480.573 282.534 480.664 283.101 480.664 283.75V284.332H474.216V283.019H478.671C478.671 282.714 478.604 282.444 478.472 282.209C478.339 281.974 478.155 281.79 477.92 281.657C477.688 281.521 477.418 281.453 477.11 281.453C476.788 281.453 476.503 281.528 476.254 281.677C476.009 281.823 475.817 282.02 475.678 282.269C475.539 282.514 475.467 282.787 475.464 283.089V284.337C475.464 284.715 475.534 285.041 475.673 285.316C475.815 285.591 476.016 285.803 476.274 285.953C476.533 286.102 476.839 286.176 477.194 286.176C477.429 286.176 477.645 286.143 477.84 286.077C478.036 286.011 478.203 285.911 478.343 285.779C478.482 285.646 478.588 285.484 478.661 285.291L480.619 285.421C480.52 285.891 480.316 286.302 480.008 286.654C479.703 287.002 479.309 287.273 478.825 287.469C478.344 287.661 477.789 287.757 477.159 287.757ZM484.86 287.732C484.28 287.732 483.755 287.583 483.284 287.285C482.817 286.983 482.446 286.541 482.171 285.958C481.899 285.371 481.763 284.652 481.763 283.8C481.763 282.925 481.904 282.197 482.186 281.617C482.467 281.034 482.842 280.598 483.309 280.31C483.78 280.018 484.295 279.872 484.855 279.872C485.283 279.872 485.639 279.945 485.924 280.091C486.213 280.234 486.445 280.413 486.62 280.628C486.799 280.84 486.935 281.049 487.028 281.254H487.093V277.426H489.205V287.608H487.117V286.385H487.028C486.928 286.597 486.788 286.808 486.605 287.017C486.426 287.222 486.193 287.393 485.904 287.529C485.619 287.664 485.271 287.732 484.86 287.732ZM485.531 286.047C485.873 286.047 486.161 285.954 486.396 285.769C486.635 285.58 486.817 285.316 486.943 284.978C487.073 284.64 487.137 284.244 487.137 283.79C487.137 283.336 487.074 282.941 486.948 282.607C486.822 282.272 486.64 282.013 486.401 281.831C486.163 281.649 485.873 281.558 485.531 281.558C485.183 281.558 484.89 281.652 484.651 281.841C484.413 282.03 484.232 282.292 484.11 282.627C483.987 282.961 483.926 283.349 483.926 283.79C483.926 284.234 483.987 284.627 484.11 284.968C484.235 285.306 484.416 285.571 484.651 285.764C484.89 285.953 485.183 286.047 485.531 286.047ZM499.75 280.355C499.71 279.954 499.54 279.642 499.238 279.42C498.936 279.198 498.527 279.087 498.01 279.087C497.659 279.087 497.362 279.137 497.12 279.236C496.878 279.332 496.693 279.466 496.563 279.639C496.437 279.811 496.374 280.007 496.374 280.225C496.368 280.408 496.406 280.567 496.489 280.703C496.575 280.839 496.693 280.956 496.842 281.056C496.991 281.152 497.163 281.236 497.359 281.309C497.554 281.379 497.763 281.438 497.985 281.488L498.9 281.707C499.344 281.806 499.752 281.939 500.123 282.105C500.494 282.27 500.816 282.474 501.088 282.716C501.359 282.958 501.57 283.243 501.719 283.571C501.871 283.899 501.949 284.276 501.953 284.7C501.949 285.323 501.79 285.863 501.475 286.321C501.164 286.775 500.713 287.128 500.123 287.379C499.536 287.628 498.829 287.752 498 287.752C497.178 287.752 496.462 287.626 495.852 287.374C495.246 287.123 494.772 286.75 494.431 286.256C494.093 285.759 493.915 285.144 493.899 284.411H495.982C496.005 284.753 496.103 285.038 496.275 285.267C496.451 285.492 496.684 285.663 496.976 285.779C497.271 285.891 497.604 285.948 497.975 285.948C498.34 285.948 498.656 285.895 498.925 285.789C499.197 285.682 499.407 285.535 499.556 285.346C499.705 285.157 499.78 284.94 499.78 284.695C499.78 284.466 499.712 284.274 499.576 284.118C499.444 283.962 499.248 283.83 498.99 283.72C498.734 283.611 498.421 283.512 498.05 283.422L496.941 283.144C496.083 282.935 495.405 282.608 494.908 282.164C494.411 281.72 494.164 281.122 494.167 280.37C494.164 279.753 494.328 279.214 494.659 278.754C494.994 278.293 495.453 277.933 496.036 277.675C496.62 277.416 497.283 277.287 498.025 277.287C498.781 277.287 499.44 277.416 500.004 277.675C500.57 277.933 501.011 278.293 501.326 278.754C501.641 279.214 501.803 279.748 501.813 280.355H499.75ZM503.361 287.608V279.972H505.379V281.319H505.469C505.628 280.872 505.893 280.519 506.264 280.26C506.635 280.002 507.08 279.872 507.597 279.872C508.12 279.872 508.566 280.003 508.934 280.265C509.302 280.524 509.547 280.875 509.67 281.319H509.749C509.905 280.882 510.187 280.532 510.594 280.27C511.005 280.005 511.491 279.872 512.051 279.872C512.764 279.872 513.342 280.099 513.786 280.553C514.234 281.004 514.457 281.644 514.457 282.473V287.608H512.344V282.89C512.344 282.466 512.232 282.148 512.006 281.936C511.781 281.723 511.499 281.617 511.161 281.617C510.777 281.617 510.477 281.74 510.261 281.985C510.046 282.227 509.938 282.547 509.938 282.945V287.608H507.885V282.845C507.885 282.471 507.777 282.173 507.562 281.95C507.35 281.728 507.07 281.617 506.722 281.617C506.486 281.617 506.274 281.677 506.085 281.796C505.9 281.912 505.752 282.076 505.643 282.289C505.533 282.497 505.479 282.743 505.479 283.024V287.608H503.361ZM518.308 287.752C517.821 287.752 517.386 287.668 517.005 287.499C516.624 287.326 516.323 287.073 516.1 286.738C515.882 286.4 515.772 285.979 515.772 285.475C515.772 285.051 515.85 284.695 516.006 284.406C516.162 284.118 516.374 283.886 516.642 283.71C516.911 283.535 517.216 283.402 517.557 283.313C517.902 283.223 518.263 283.16 518.641 283.124C519.085 283.077 519.443 283.034 519.715 282.995C519.987 282.951 520.184 282.888 520.306 282.806C520.429 282.723 520.49 282.6 520.49 282.438V282.408C520.49 282.093 520.391 281.849 520.192 281.677C519.997 281.505 519.718 281.419 519.357 281.419C518.976 281.419 518.672 281.503 518.447 281.672C518.222 281.838 518.073 282.047 518 282.298L516.041 282.139C516.14 281.675 516.336 281.274 516.627 280.936C516.919 280.595 517.295 280.333 517.756 280.151C518.22 279.965 518.757 279.872 519.367 279.872C519.791 279.872 520.197 279.922 520.585 280.022C520.976 280.121 521.322 280.275 521.624 280.484C521.929 280.693 522.169 280.961 522.345 281.289C522.52 281.614 522.608 282.004 522.608 282.458V287.608H520.6V286.549H520.54C520.417 286.788 520.253 286.998 520.048 287.181C519.842 287.36 519.596 287.5 519.307 287.603C519.019 287.703 518.686 287.752 518.308 287.752ZM518.914 286.291C519.226 286.291 519.501 286.229 519.74 286.107C519.978 285.981 520.166 285.812 520.301 285.6C520.437 285.388 520.505 285.147 520.505 284.879V284.068C520.439 284.111 520.348 284.151 520.232 284.188C520.119 284.221 519.992 284.252 519.849 284.282C519.707 284.309 519.564 284.334 519.422 284.357C519.279 284.377 519.15 284.395 519.034 284.411C518.785 284.448 518.568 284.506 518.382 284.585C518.197 284.665 518.053 284.773 517.95 284.909C517.847 285.041 517.796 285.207 517.796 285.406C517.796 285.694 517.9 285.914 518.109 286.067C518.321 286.216 518.59 286.291 518.914 286.291ZM524.251 287.608V279.972H526.305V281.304H526.384C526.523 280.83 526.757 280.472 527.085 280.23C527.413 279.985 527.791 279.862 528.219 279.862C528.325 279.862 528.439 279.869 528.562 279.882C528.684 279.896 528.792 279.914 528.885 279.937V281.816C528.786 281.786 528.648 281.76 528.472 281.737C528.297 281.714 528.136 281.702 527.99 281.702C527.679 281.702 527.4 281.77 527.155 281.906C526.913 282.038 526.721 282.224 526.578 282.463C526.439 282.701 526.369 282.976 526.369 283.288V287.608H524.251ZM534.425 279.972V281.563H529.826V279.972H534.425ZM530.87 278.142H532.988V285.262C532.988 285.457 533.018 285.61 533.077 285.719C533.137 285.825 533.22 285.9 533.326 285.943C533.435 285.986 533.561 286.007 533.704 286.007C533.803 286.007 533.903 285.999 534.002 285.982C534.101 285.963 534.178 285.948 534.231 285.938L534.564 287.514C534.458 287.547 534.309 287.585 534.116 287.628C533.924 287.674 533.69 287.703 533.415 287.713C532.905 287.732 532.457 287.664 532.073 287.509C531.692 287.353 531.395 287.111 531.183 286.783C530.971 286.455 530.867 286.04 530.87 285.54V278.142ZM539.084 287.608V277.426H541.237V281.627H545.607V277.426H547.755V287.608H545.607V283.402H541.237V287.608H539.084ZM552.94 287.757C552.168 287.757 551.5 287.593 550.936 287.265C550.376 286.934 549.944 286.473 549.639 285.883C549.334 285.29 549.181 284.602 549.181 283.82C549.181 283.031 549.334 282.342 549.639 281.752C549.944 281.158 550.376 280.698 550.936 280.37C551.5 280.038 552.168 279.872 552.94 279.872C553.712 279.872 554.378 280.038 554.939 280.37C555.502 280.698 555.936 281.158 556.241 281.752C556.546 282.342 556.699 283.031 556.699 283.82C556.699 284.602 556.546 285.29 556.241 285.883C555.936 286.473 555.502 286.934 554.939 287.265C554.378 287.593 553.712 287.757 552.94 287.757ZM552.95 286.117C553.301 286.117 553.595 286.017 553.83 285.818C554.065 285.616 554.243 285.341 554.362 284.993C554.484 284.645 554.546 284.249 554.546 283.805C554.546 283.361 554.484 282.965 554.362 282.617C554.243 282.269 554.065 281.994 553.83 281.791C553.595 281.589 553.301 281.488 552.95 281.488C552.595 281.488 552.297 281.589 552.055 281.791C551.816 281.994 551.636 282.269 551.513 282.617C551.394 282.965 551.334 283.361 551.334 283.805C551.334 284.249 551.394 284.645 551.513 284.993C551.636 285.341 551.816 285.616 552.055 285.818C552.297 286.017 552.595 286.117 552.95 286.117ZM564.429 282.149L562.49 282.269C562.457 282.103 562.386 281.954 562.277 281.821C562.167 281.685 562.023 281.578 561.844 281.498C561.668 281.415 561.458 281.374 561.213 281.374C560.885 281.374 560.608 281.443 560.382 281.583C560.157 281.718 560.044 281.901 560.044 282.129C560.044 282.312 560.117 282.466 560.263 282.592C560.409 282.718 560.659 282.819 561.014 282.895L562.396 283.173C563.138 283.326 563.692 283.571 564.056 283.909C564.421 284.247 564.603 284.691 564.603 285.242C564.603 285.742 564.456 286.181 564.161 286.559C563.869 286.937 563.468 287.232 562.958 287.444C562.451 287.653 561.866 287.757 561.203 287.757C560.192 287.757 559.386 287.547 558.787 287.126C558.19 286.702 557.84 286.125 557.738 285.396L559.821 285.286C559.884 285.595 560.036 285.83 560.278 285.992C560.52 286.151 560.83 286.231 561.208 286.231C561.579 286.231 561.877 286.16 562.103 286.017C562.331 285.871 562.447 285.684 562.451 285.455C562.447 285.263 562.366 285.106 562.207 284.983C562.048 284.857 561.803 284.761 561.471 284.695L560.149 284.431C559.403 284.282 558.848 284.024 558.483 283.656C558.122 283.288 557.941 282.819 557.941 282.249C557.941 281.758 558.074 281.336 558.339 280.981C558.608 280.626 558.984 280.353 559.468 280.161C559.955 279.968 560.525 279.872 561.178 279.872C562.142 279.872 562.901 280.076 563.455 280.484C564.012 280.892 564.337 281.447 564.429 282.149ZM565.937 290.472V279.972H568.025V281.254H568.119C568.212 281.049 568.347 280.84 568.522 280.628C568.701 280.413 568.933 280.234 569.218 280.091C569.507 279.945 569.865 279.872 570.292 279.872C570.849 279.872 571.363 280.018 571.833 280.31C572.304 280.598 572.68 281.034 572.962 281.617C573.244 282.197 573.384 282.925 573.384 283.8C573.384 284.652 573.247 285.371 572.972 285.958C572.7 286.541 572.329 286.983 571.858 287.285C571.391 287.583 570.867 287.732 570.287 287.732C569.876 287.732 569.526 287.664 569.238 287.529C568.953 287.393 568.719 287.222 568.537 287.017C568.355 286.808 568.216 286.597 568.119 286.385H568.055V290.472H565.937ZM568.01 283.79C568.01 284.244 568.073 284.64 568.199 284.978C568.325 285.316 568.507 285.58 568.746 285.769C568.985 285.954 569.275 286.047 569.616 286.047C569.961 286.047 570.252 285.953 570.491 285.764C570.73 285.571 570.91 285.306 571.033 284.968C571.159 284.627 571.222 284.234 571.222 283.79C571.222 283.349 571.16 282.961 571.038 282.627C570.915 282.292 570.735 282.03 570.496 281.841C570.257 281.652 569.964 281.558 569.616 281.558C569.271 281.558 568.98 281.649 568.741 281.831C568.506 282.013 568.325 282.272 568.199 282.607C568.073 282.941 568.01 283.336 568.01 283.79ZM574.796 287.608V279.972H576.914V287.608H574.796ZM575.86 278.987C575.545 278.987 575.275 278.883 575.05 278.674C574.828 278.462 574.717 278.209 574.717 277.914C574.717 277.622 574.828 277.372 575.05 277.163C575.275 276.951 575.545 276.845 575.86 276.845C576.175 276.845 576.444 276.951 576.666 277.163C576.891 277.372 577.004 277.622 577.004 277.914C577.004 278.209 576.891 278.462 576.666 278.674C576.444 278.883 576.175 278.987 575.86 278.987ZM582.673 279.972V281.563H578.074V279.972H582.673ZM579.118 278.142H581.236V285.262C581.236 285.457 581.266 285.61 581.325 285.719C581.385 285.825 581.468 285.9 581.574 285.943C581.683 285.986 581.809 286.007 581.952 286.007C582.051 286.007 582.151 285.999 582.25 285.982C582.349 285.963 582.426 285.948 582.479 285.938L582.812 287.514C582.706 287.547 582.557 287.585 582.364 287.628C582.172 287.674 581.938 287.703 581.663 287.713C581.153 287.732 580.705 287.664 580.321 287.509C579.94 287.353 579.643 287.111 579.431 286.783C579.219 286.455 579.115 286.04 579.118 285.54V278.142ZM586.23 287.752C585.743 287.752 585.308 287.668 584.927 287.499C584.546 287.326 584.244 287.073 584.022 286.738C583.804 286.4 583.694 285.979 583.694 285.475C583.694 285.051 583.772 284.695 583.928 284.406C584.084 284.118 584.296 283.886 584.564 283.71C584.833 283.535 585.138 283.402 585.479 283.313C585.824 283.223 586.185 283.16 586.563 283.124C587.007 283.077 587.365 283.034 587.637 282.995C587.908 282.951 588.106 282.888 588.228 282.806C588.351 282.723 588.412 282.6 588.412 282.438V282.408C588.412 282.093 588.313 281.849 588.114 281.677C587.918 281.505 587.64 281.419 587.279 281.419C586.898 281.419 586.594 281.503 586.369 281.672C586.144 281.838 585.994 282.047 585.922 282.298L583.963 282.139C584.062 281.675 584.258 281.274 584.549 280.936C584.841 280.595 585.217 280.333 585.678 280.151C586.142 279.965 586.679 279.872 587.289 279.872C587.713 279.872 588.119 279.922 588.507 280.022C588.898 280.121 589.244 280.275 589.546 280.484C589.851 280.693 590.091 280.961 590.267 281.289C590.442 281.614 590.53 282.004 590.53 282.458V287.608H588.522V286.549H588.462C588.339 286.788 588.175 286.998 587.97 287.181C587.764 287.36 587.517 287.5 587.229 287.603C586.941 287.703 586.608 287.752 586.23 287.752ZM586.836 286.291C587.148 286.291 587.423 286.229 587.662 286.107C587.9 285.981 588.087 285.812 588.223 285.6C588.359 285.388 588.427 285.147 588.427 284.879V284.068C588.361 284.111 588.27 284.151 588.154 284.188C588.041 284.221 587.913 284.252 587.771 284.282C587.628 284.309 587.486 284.334 587.343 284.357C587.201 284.377 587.072 284.395 586.956 284.411C586.707 284.448 586.49 284.506 586.304 284.585C586.119 284.665 585.975 284.773 585.872 284.909C585.769 285.041 585.718 285.207 585.718 285.406C585.718 285.694 585.822 285.914 586.031 286.067C586.243 286.216 586.511 286.291 586.836 286.291ZM594.291 277.426V287.608H592.173V277.426H594.291ZM599.268 277.426H601.923L604.727 284.267H604.846L607.65 277.426H610.305V287.608H608.217V280.981H608.132L605.497 287.558H604.075L601.44 280.956H601.356V287.608H599.268V277.426ZM614.216 287.752C613.729 287.752 613.295 287.668 612.914 287.499C612.532 287.326 612.231 287.073 612.009 286.738C611.79 286.4 611.681 285.979 611.681 285.475C611.681 285.051 611.758 284.695 611.914 284.406C612.07 284.118 612.282 283.886 612.551 283.71C612.819 283.535 613.124 283.402 613.465 283.313C613.81 283.223 614.171 283.16 614.549 283.124C614.993 283.077 615.351 283.034 615.623 282.995C615.895 282.951 616.092 282.888 616.215 282.806C616.337 282.723 616.399 282.6 616.399 282.438V282.408C616.399 282.093 616.299 281.849 616.1 281.677C615.905 281.505 615.626 281.419 615.265 281.419C614.884 281.419 614.581 281.503 614.355 281.672C614.13 281.838 613.981 282.047 613.908 282.298L611.949 282.139C612.048 281.675 612.244 281.274 612.536 280.936C612.827 280.595 613.204 280.333 613.664 280.151C614.128 279.965 614.665 279.872 615.275 279.872C615.699 279.872 616.105 279.922 616.493 280.022C616.884 280.121 617.231 280.275 617.532 280.484C617.837 280.693 618.077 280.961 618.253 281.289C618.429 281.614 618.517 282.004 618.517 282.458V287.608H616.508V286.549H616.448C616.326 286.788 616.162 286.998 615.956 287.181C615.751 287.36 615.504 287.5 615.215 287.603C614.927 287.703 614.594 287.752 614.216 287.752ZM614.823 286.291C615.134 286.291 615.409 286.229 615.648 286.107C615.887 285.981 616.074 285.812 616.21 285.6C616.346 285.388 616.414 285.147 616.414 284.879V284.068C616.347 284.111 616.256 284.151 616.14 284.188C616.027 284.221 615.9 284.252 615.757 284.282C615.615 284.309 615.472 284.334 615.33 284.357C615.187 284.377 615.058 284.395 614.942 284.411C614.693 284.448 614.476 284.506 614.291 284.585C614.105 284.665 613.961 284.773 613.858 284.909C613.755 285.041 613.704 285.207 613.704 285.406C613.704 285.694 613.808 285.914 614.017 286.067C614.229 286.216 614.498 286.291 614.823 286.291ZM622.278 283.193V287.608H620.16V279.972H622.178V281.319H622.268C622.437 280.875 622.72 280.524 623.118 280.265C623.515 280.003 623.998 279.872 624.564 279.872C625.095 279.872 625.557 279.988 625.952 280.22C626.346 280.452 626.653 280.784 626.871 281.215C627.09 281.642 627.199 282.153 627.199 282.746V287.608H625.081V283.124C625.085 282.656 624.965 282.292 624.724 282.03C624.482 281.765 624.148 281.632 623.724 281.632C623.439 281.632 623.187 281.694 622.969 281.816C622.753 281.939 622.584 282.118 622.461 282.353C622.342 282.585 622.281 282.865 622.278 283.193ZM631.046 287.752C630.559 287.752 630.125 287.668 629.744 287.499C629.362 287.326 629.061 287.073 628.839 286.738C628.62 286.4 628.511 285.979 628.511 285.475C628.511 285.051 628.589 284.695 628.744 284.406C628.9 284.118 629.112 283.886 629.381 283.71C629.649 283.535 629.954 283.402 630.295 283.313C630.64 283.223 631.001 283.16 631.379 283.124C631.823 283.077 632.181 283.034 632.453 282.995C632.725 282.951 632.922 282.888 633.045 282.806C633.167 282.723 633.229 282.6 633.229 282.438V282.408C633.229 282.093 633.129 281.849 632.93 281.677C632.735 281.505 632.456 281.419 632.095 281.419C631.714 281.419 631.411 281.503 631.185 281.672C630.96 281.838 630.811 282.047 630.738 282.298L628.779 282.139C628.879 281.675 629.074 281.274 629.366 280.936C629.657 280.595 630.034 280.333 630.494 280.151C630.958 279.965 631.495 279.872 632.105 279.872C632.529 279.872 632.935 279.922 633.323 280.022C633.714 280.121 634.061 280.275 634.362 280.484C634.667 280.693 634.907 280.961 635.083 281.289C635.259 281.614 635.347 282.004 635.347 282.458V287.608H633.338V286.549H633.278C633.156 286.788 632.992 286.998 632.786 287.181C632.581 287.36 632.334 287.5 632.045 287.603C631.757 287.703 631.424 287.752 631.046 287.752ZM631.653 286.291C631.964 286.291 632.239 286.229 632.478 286.107C632.717 285.981 632.904 285.812 633.04 285.6C633.176 285.388 633.244 285.147 633.244 284.879V284.068C633.177 284.111 633.086 284.151 632.97 284.188C632.857 284.221 632.73 284.252 632.587 284.282C632.445 284.309 632.302 284.334 632.16 284.357C632.017 284.377 631.888 284.395 631.772 284.411C631.523 284.448 631.306 284.506 631.121 284.585C630.935 284.665 630.791 284.773 630.688 284.909C630.585 285.041 630.534 285.207 630.534 285.406C630.534 285.694 630.638 285.914 630.847 286.067C631.059 286.216 631.328 286.291 631.653 286.291ZM640.43 290.631C639.744 290.631 639.156 290.536 638.665 290.348C638.178 290.162 637.79 289.908 637.502 289.587C637.213 289.265 637.026 288.904 636.94 288.503L638.899 288.24C638.958 288.392 639.053 288.535 639.182 288.667C639.311 288.8 639.482 288.906 639.694 288.985C639.91 289.068 640.172 289.11 640.48 289.11C640.94 289.11 641.32 288.997 641.618 288.772C641.92 288.549 642.071 288.177 642.071 287.653V286.256H641.981C641.888 286.468 641.749 286.669 641.564 286.857C641.378 287.046 641.139 287.2 640.848 287.32C640.556 287.439 640.208 287.499 639.804 287.499C639.23 287.499 638.708 287.366 638.238 287.101C637.77 286.833 637.397 286.423 637.119 285.873C636.844 285.32 636.706 284.62 636.706 283.775C636.706 282.91 636.847 282.187 637.129 281.607C637.411 281.027 637.785 280.593 638.252 280.305C638.723 280.017 639.239 279.872 639.799 279.872C640.226 279.872 640.584 279.945 640.873 280.091C641.161 280.234 641.393 280.413 641.569 280.628C641.748 280.84 641.885 281.049 641.981 281.254H642.061V279.972H644.164V287.683C644.164 288.332 644.005 288.876 643.686 289.313C643.368 289.751 642.927 290.079 642.364 290.298C641.804 290.52 641.159 290.631 640.43 290.631ZM640.475 285.908C640.816 285.908 641.105 285.823 641.34 285.654C641.578 285.482 641.761 285.237 641.887 284.919C642.016 284.597 642.081 284.213 642.081 283.765C642.081 283.318 642.018 282.93 641.892 282.602C641.766 282.27 641.583 282.013 641.345 281.831C641.106 281.649 640.816 281.558 640.475 281.558C640.127 281.558 639.833 281.652 639.595 281.841C639.356 282.027 639.176 282.285 639.053 282.617C638.93 282.948 638.869 283.331 638.869 283.765C638.869 284.206 638.93 284.587 639.053 284.909C639.179 285.227 639.359 285.474 639.595 285.649C639.833 285.822 640.127 285.908 640.475 285.908ZM649.329 287.757C648.544 287.757 647.868 287.598 647.301 287.28C646.737 286.959 646.303 286.504 645.998 285.918C645.693 285.328 645.541 284.63 645.541 283.825C645.541 283.039 645.693 282.35 645.998 281.757C646.303 281.163 646.732 280.701 647.286 280.37C647.843 280.038 648.496 279.872 649.245 279.872C649.748 279.872 650.217 279.954 650.652 280.116C651.089 280.275 651.47 280.515 651.795 280.837C652.123 281.158 652.378 281.563 652.561 282.05C652.743 282.534 652.834 283.101 652.834 283.75V284.332H646.386V283.019H650.841C650.841 282.714 650.774 282.444 650.642 282.209C650.509 281.974 650.325 281.79 650.09 281.657C649.858 281.521 649.588 281.453 649.279 281.453C648.958 281.453 648.673 281.528 648.424 281.677C648.179 281.823 647.987 282.02 647.848 282.269C647.708 282.514 647.637 282.787 647.634 283.089V284.337C647.634 284.715 647.703 285.041 647.843 285.316C647.985 285.591 648.186 285.803 648.444 285.953C648.703 286.102 649.009 286.176 649.364 286.176C649.599 286.176 649.815 286.143 650.01 286.077C650.206 286.011 650.373 285.911 650.512 285.779C650.652 285.646 650.758 285.484 650.831 285.291L652.789 285.421C652.69 285.891 652.486 286.302 652.178 286.654C651.873 287.002 651.479 287.273 650.995 287.469C650.514 287.661 649.959 287.757 649.329 287.757ZM654.216 287.608V279.972H656.235V281.319H656.324C656.483 280.872 656.748 280.519 657.12 280.26C657.491 280.002 657.935 279.872 658.452 279.872C658.976 279.872 659.422 280.003 659.789 280.265C660.157 280.524 660.403 280.875 660.525 281.319H660.605C660.761 280.882 661.042 280.532 661.45 280.27C661.861 280.005 662.346 279.872 662.907 279.872C663.619 279.872 664.198 280.099 664.642 280.553C665.089 281.004 665.313 281.644 665.313 282.473V287.608H663.2V282.89C663.2 282.466 663.087 282.148 662.862 281.936C662.636 281.723 662.355 281.617 662.017 281.617C661.632 281.617 661.332 281.74 661.117 281.985C660.901 282.227 660.794 282.547 660.794 282.945V287.608H658.74V282.845C658.74 282.471 658.633 282.173 658.417 281.95C658.205 281.728 657.925 281.617 657.577 281.617C657.342 281.617 657.13 281.677 656.941 281.796C656.755 281.912 656.608 282.076 656.498 282.289C656.389 282.497 656.334 282.743 656.334 283.024V287.608H654.216ZM670.466 287.757C669.68 287.757 669.004 287.598 668.438 287.28C667.874 286.959 667.44 286.504 667.135 285.918C666.83 285.328 666.678 284.63 666.678 283.825C666.678 283.039 666.83 282.35 667.135 281.757C667.44 281.163 667.869 280.701 668.423 280.37C668.979 280.038 669.632 279.872 670.381 279.872C670.885 279.872 671.354 279.954 671.788 280.116C672.226 280.275 672.607 280.515 672.932 280.837C673.26 281.158 673.515 281.563 673.697 282.05C673.88 282.534 673.971 283.101 673.971 283.75V284.332H667.523V283.019H671.977C671.977 282.714 671.911 282.444 671.778 282.209C671.646 281.974 671.462 281.79 671.227 281.657C670.995 281.521 670.724 281.453 670.416 281.453C670.095 281.453 669.81 281.528 669.561 281.677C669.316 281.823 669.124 282.02 668.984 282.269C668.845 282.514 668.774 282.787 668.771 283.089V284.337C668.771 284.715 668.84 285.041 668.979 285.316C669.122 285.591 669.322 285.803 669.581 285.953C669.839 286.102 670.146 286.176 670.501 286.176C670.736 286.176 670.951 286.143 671.147 286.077C671.343 286.011 671.51 285.911 671.649 285.779C671.788 285.646 671.894 285.484 671.967 285.291L673.926 285.421C673.827 285.891 673.623 286.302 673.315 286.654C673.01 287.002 672.615 287.273 672.131 287.469C671.651 287.661 671.096 287.757 670.466 287.757ZM677.471 283.193V287.608H675.353V279.972H677.371V281.319H677.461C677.63 280.875 677.913 280.524 678.311 280.265C678.709 280.003 679.191 279.872 679.758 279.872C680.288 279.872 680.75 279.988 681.145 280.22C681.539 280.452 681.846 280.784 682.065 281.215C682.283 281.642 682.393 282.153 682.393 282.746V287.608H680.275V283.124C680.278 282.656 680.159 282.292 679.917 282.03C679.675 281.765 679.342 281.632 678.918 281.632C678.633 281.632 678.381 281.694 678.162 281.816C677.946 281.939 677.777 282.118 677.655 282.353C677.536 282.585 677.474 282.865 677.471 283.193ZM688.124 279.972V281.563H683.525V279.972H688.124ZM684.569 278.142H686.687V285.262C686.687 285.457 686.717 285.61 686.776 285.719C686.836 285.825 686.919 285.9 687.025 285.943C687.134 285.986 687.26 286.007 687.403 286.007C687.502 286.007 687.602 285.999 687.701 285.982C687.801 285.963 687.877 285.948 687.93 285.938L688.263 287.514C688.157 287.547 688.008 287.585 687.816 287.628C687.623 287.674 687.39 287.703 687.115 287.713C686.604 287.732 686.157 287.664 685.772 287.509C685.391 287.353 685.094 287.111 684.882 286.783C684.67 286.455 684.566 286.04 684.569 285.54V278.142ZM698.307 280.355C698.267 279.954 698.096 279.642 697.795 279.42C697.493 279.198 697.084 279.087 696.567 279.087C696.215 279.087 695.919 279.137 695.677 279.236C695.435 279.332 695.249 279.466 695.12 279.639C694.994 279.811 694.931 280.007 694.931 280.225C694.924 280.408 694.963 280.567 695.045 280.703C695.132 280.839 695.249 280.956 695.398 281.056C695.548 281.152 695.72 281.236 695.915 281.309C696.111 281.379 696.32 281.438 696.542 281.488L697.457 281.707C697.901 281.806 698.308 281.939 698.68 282.105C699.051 282.27 699.372 282.474 699.644 282.716C699.916 282.958 700.126 283.243 700.276 283.571C700.428 283.899 700.506 284.276 700.509 284.7C700.506 285.323 700.347 285.863 700.032 286.321C699.72 286.775 699.27 287.128 698.68 287.379C698.093 287.628 697.385 287.752 696.557 287.752C695.735 287.752 695.019 287.626 694.409 287.374C693.803 287.123 693.329 286.75 692.987 286.256C692.649 285.759 692.472 285.144 692.455 284.411H694.538C694.562 284.753 694.659 285.038 694.832 285.267C695.007 285.492 695.241 285.663 695.533 285.779C695.828 285.891 696.161 285.948 696.532 285.948C696.897 285.948 697.213 285.895 697.482 285.789C697.753 285.682 697.964 285.535 698.113 285.346C698.262 285.157 698.337 284.94 698.337 284.695C698.337 284.466 698.269 284.274 698.133 284.118C698 283.962 697.805 283.83 697.546 283.72C697.291 283.611 696.978 283.512 696.607 283.422L695.498 283.144C694.639 282.935 693.962 282.608 693.464 282.164C692.967 281.72 692.72 281.122 692.724 280.37C692.72 279.753 692.884 279.214 693.216 278.754C693.551 278.293 694.01 277.933 694.593 277.675C695.176 277.416 695.839 277.287 696.582 277.287C697.337 277.287 697.997 277.416 698.56 277.675C699.127 277.933 699.568 278.293 699.883 278.754C700.198 279.214 700.36 279.748 700.37 280.355H698.307ZM703.225 290.472C702.956 290.472 702.705 290.45 702.469 290.407C702.237 290.367 702.045 290.316 701.893 290.253L702.37 288.672C702.618 288.748 702.842 288.79 703.041 288.796C703.243 288.803 703.417 288.757 703.563 288.657C703.712 288.558 703.833 288.389 703.926 288.15L704.05 287.827L701.311 279.972H703.538L705.119 285.58H705.199L706.795 279.972H709.037L706.069 288.433C705.926 288.844 705.732 289.202 705.487 289.507C705.245 289.816 704.939 290.053 704.567 290.218C704.196 290.387 703.749 290.472 703.225 290.472ZM716.474 282.149L714.535 282.269C714.502 282.103 714.431 281.954 714.322 281.821C714.212 281.685 714.068 281.578 713.889 281.498C713.713 281.415 713.503 281.374 713.258 281.374C712.93 281.374 712.653 281.443 712.427 281.583C712.202 281.718 712.089 281.901 712.089 282.129C712.089 282.312 712.162 282.466 712.308 282.592C712.454 282.718 712.704 282.819 713.059 282.895L714.441 283.173C715.183 283.326 715.737 283.571 716.101 283.909C716.466 284.247 716.648 284.691 716.648 285.242C716.648 285.742 716.501 286.181 716.206 286.559C715.914 286.937 715.513 287.232 715.003 287.444C714.496 287.653 713.911 287.757 713.248 287.757C712.237 287.757 711.431 287.547 710.831 287.126C710.235 286.702 709.885 286.125 709.782 285.396L711.866 285.286C711.929 285.595 712.081 285.83 712.323 285.992C712.565 286.151 712.875 286.231 713.253 286.231C713.624 286.231 713.922 286.16 714.148 286.017C714.376 285.871 714.492 285.684 714.496 285.455C714.492 285.263 714.411 285.106 714.252 284.983C714.093 284.857 713.848 284.761 713.516 284.695L712.194 284.431C711.448 284.282 710.893 284.024 710.528 283.656C710.167 283.288 709.986 282.819 709.986 282.249C709.986 281.758 710.119 281.336 710.384 280.981C710.653 280.626 711.029 280.353 711.513 280.161C712 279.968 712.57 279.872 713.223 279.872C714.187 279.872 714.946 280.076 715.5 280.484C716.057 280.892 716.381 281.447 716.474 282.149ZM722.044 279.972V281.563H717.445V279.972H722.044ZM718.489 278.142H720.607V285.262C720.607 285.457 720.637 285.61 720.696 285.719C720.756 285.825 720.839 285.9 720.945 285.943C721.054 285.986 721.18 286.007 721.323 286.007C721.422 286.007 721.522 285.999 721.621 285.982C721.721 285.963 721.797 285.948 721.85 285.938L722.183 287.514C722.077 287.547 721.928 287.585 721.735 287.628C721.543 287.674 721.31 287.703 721.034 287.713C720.524 287.732 720.077 287.664 719.692 287.509C719.311 287.353 719.014 287.111 718.802 286.783C718.59 286.455 718.486 286.04 718.489 285.54V278.142ZM726.821 287.757C726.036 287.757 725.36 287.598 724.793 287.28C724.23 286.959 723.795 286.504 723.49 285.918C723.185 285.328 723.033 284.63 723.033 283.825C723.033 283.039 723.185 282.35 723.49 281.757C723.795 281.163 724.225 280.701 724.778 280.37C725.335 280.038 725.988 279.872 726.737 279.872C727.241 279.872 727.71 279.954 728.144 280.116C728.581 280.275 728.962 280.515 729.287 280.837C729.615 281.158 729.871 281.563 730.053 282.05C730.235 282.534 730.326 283.101 730.326 283.75V284.332H723.878V283.019H728.333C728.333 282.714 728.266 282.444 728.134 282.209C728.001 281.974 727.817 281.79 727.582 281.657C727.35 281.521 727.08 281.453 726.772 281.453C726.45 281.453 726.165 281.528 725.917 281.677C725.671 281.823 725.479 282.02 725.34 282.269C725.201 282.514 725.129 282.787 725.126 283.089V284.337C725.126 284.715 725.196 285.041 725.335 285.316C725.477 285.591 725.678 285.803 725.936 285.953C726.195 286.102 726.502 286.176 726.856 286.176C727.092 286.176 727.307 286.143 727.502 286.077C727.698 286.011 727.865 285.911 728.005 285.779C728.144 285.646 728.25 285.484 728.323 285.291L730.282 285.421C730.182 285.891 729.978 286.302 729.67 286.654C729.365 287.002 728.971 287.273 728.487 287.469C728.006 287.661 727.451 287.757 726.821 287.757ZM731.708 287.608V279.972H733.727V281.319H733.816C733.975 280.872 734.241 280.519 734.612 280.26C734.983 280.002 735.427 279.872 735.944 279.872C736.468 279.872 736.914 280.003 737.282 280.265C737.65 280.524 737.895 280.875 738.017 281.319H738.097C738.253 280.882 738.534 280.532 738.942 280.27C739.353 280.005 739.839 279.872 740.399 279.872C741.111 279.872 741.69 280.099 742.134 280.553C742.581 281.004 742.805 281.644 742.805 282.473V287.608H740.692V282.89C740.692 282.466 740.579 282.148 740.354 281.936C740.129 281.723 739.847 281.617 739.509 281.617C739.124 281.617 738.824 281.74 738.609 281.985C738.394 282.227 738.286 282.547 738.286 282.945V287.608H736.233V282.845C736.233 282.471 736.125 282.173 735.909 281.95C735.697 281.728 735.417 281.617 735.069 281.617C734.834 281.617 734.622 281.677 734.433 281.796C734.247 281.912 734.1 282.076 733.99 282.289C733.881 282.497 733.826 282.743 733.826 283.024V287.608H731.708Z" fill="#002157"/>
<rect x="370.767" y="281.211" width="37.6391" height="1.73053" fill="#036EE8"/>
<rect x="752.349" y="281.211" width="37.6391" height="1.73053" fill="#02A7F6"/>
</svg>
